<svg xmlns="http://www.w3.org/2000/svg" width="860" height="212" viewBox="0 0 860 212" role="img" aria-label="Time per predict + update (lower is better)" font-family="system-ui, -apple-system, 'Segoe UI', Helvetica, Arial, sans-serif">
<title>Time per predict + update (lower is better)</title>
<text x="0" y="22" font-size="17" font-weight="600" fill="#ffffff">Time per predict + update (lower is better)</text>
<text x="0" y="42" font-size="12.5" fill="#c3c2b7">float32 · Apple M3 Pro · median of 30 runs · each panel has its own scale</text>
<rect x="0" y="56" width="10" height="10" rx="2" fill="#3987e5"/>
<text x="15" y="65" font-size="12" fill="#c3c2b7">kalman-c</text>
<rect x="86.2" y="56" width="10" height="10" rx="2" fill="#d95926"/>
<text x="101.2" y="65" font-size="12" fill="#c3c2b7">kalman-c (specialized)</text>
<rect x="262.0" y="56" width="10" height="10" rx="2" fill="#c98500"/>
<text x="277.0" y="65" font-size="12" fill="#c3c2b7">Textbook KF</text>
<rect x="367.4" y="56" width="10" height="10" rx="2" fill="#d55181"/>
<text x="382.4" y="65" font-size="12" fill="#c3c2b7">TinyEKF</text>
<text x="156" y="115.0" font-size="12.5" text-anchor="end" fill="#c3c2b7">kalman-c</text>
<text x="156" y="141.0" font-size="12.5" text-anchor="end" fill="#c3c2b7">kalman-c (specialized)</text>
<text x="156" y="167.0" font-size="12.5" text-anchor="end" fill="#c3c2b7">Textbook KF</text>
<text x="156" y="193.0" font-size="12.5" text-anchor="end" fill="#c3c2b7">TinyEKF</text>
<text x="168.0" y="94" font-size="12.5" font-weight="600" fill="#ffffff">S1 · 2 states</text>
<line x1="168.0" y1="100" x2="168.0" y2="200" stroke="#383835" stroke-width="1"/>
<path d="M168.0,104.0 H312.0 Q316.0,104.0 316.0,108.0 V114.0 Q316.0,118.0 312.0,118.0 H168.0 Z" fill="#3987e5"><title>kalman-c: 59 ns</title></path>
<text x="322.0" y="115.0" font-size="12" fill="#ffffff">59 ns</text>
<path d="M168.0,130.0 H245.0 Q249.0,130.0 249.0,134.0 V140.0 Q249.0,144.0 245.0,144.0 H168.0 Z" fill="#d95926"><title>kalman-c (specialized): 32 ns</title></path>
<text x="255.0" y="141.0" font-size="12" fill="#ffffff">32 ns</text>
<path d="M168.0,156.0 H309.8 Q313.8,156.0 313.8,160.0 V166.0 Q313.8,170.0 309.8,170.0 H168.0 Z" fill="#c98500"><title>Textbook KF: 58 ns</title></path>
<text x="319.8" y="167.0" font-size="12" fill="#ffffff">58 ns</text>
<path d="M168.0,182.0 H237.8 Q241.8,182.0 241.8,186.0 V192.0 Q241.8,196.0 237.8,196.0 H168.0 Z" fill="#d55181"><title>TinyEKF: 30 ns</title></path>
<text x="247.8" y="193.0" font-size="12" fill="#ffffff">30 ns</text>
<text x="408.0" y="94" font-size="12.5" font-weight="600" fill="#ffffff">S2 · 4 states</text>
<line x1="408.0" y1="100" x2="408.0" y2="200" stroke="#383835" stroke-width="1"/>
<path d="M408.0,104.0 H547.5 Q551.5,104.0 551.5,108.0 V114.0 Q551.5,118.0 547.5,118.0 H408.0 Z" fill="#3987e5"><title>kalman-c: 186 ns</title></path>
<text x="557.5" y="115.0" font-size="12" fill="#ffffff">186 ns</text>
<path d="M408.0,130.0 H445.7 Q449.7,130.0 449.7,134.0 V140.0 Q449.7,144.0 445.7,144.0 H408.0 Z" fill="#d95926"><title>kalman-c (specialized): 54 ns</title></path>
<text x="455.7" y="141.0" font-size="12" fill="#ffffff">54 ns</text>
<path d="M408.0,156.0 H552.0 Q556.0,156.0 556.0,160.0 V166.0 Q556.0,170.0 552.0,170.0 H408.0 Z" fill="#c98500"><title>Textbook KF: 192 ns</title></path>
<text x="562.0" y="167.0" font-size="12" fill="#ffffff">192 ns</text>
<path d="M408.0,182.0 H451.5 Q455.5,182.0 455.5,186.0 V192.0 Q455.5,196.0 451.5,196.0 H408.0 Z" fill="#d55181"><title>TinyEKF: 62 ns</title></path>
<text x="461.5" y="193.0" font-size="12" fill="#ffffff">62 ns</text>
<text x="648.0" y="94" font-size="12.5" font-weight="600" fill="#ffffff">S5 · 15 states</text>
<line x1="648.0" y1="100" x2="648.0" y2="200" stroke="#383835" stroke-width="1"/>
<path d="M648.0,104.0 H763.9 Q767.9,104.0 767.9,108.0 V114.0 Q767.9,118.0 763.9,118.0 H648.0 Z" fill="#3987e5"><title>kalman-c: 4.44 µs</title></path>
<text x="773.9" y="115.0" font-size="12" fill="#ffffff">4.44 µs</text>
<path d="M648.0,130.0 H692.3 Q696.3,130.0 696.3,134.0 V140.0 Q696.3,144.0 692.3,144.0 H648.0 Z" fill="#d95926"><title>kalman-c (specialized): 1.79 µs</title></path>
<text x="702.3" y="141.0" font-size="12" fill="#ffffff">1.79 µs</text>
<path d="M648.0,156.0 H792.0 Q796.0,156.0 796.0,160.0 V166.0 Q796.0,170.0 792.0,170.0 H648.0 Z" fill="#c98500"><title>Textbook KF: 5.48 µs</title></path>
<text x="802.0" y="167.0" font-size="12" fill="#ffffff">5.48 µs</text>
<path d="M648.0,182.0 H699.2 Q703.2,182.0 703.2,186.0 V192.0 Q703.2,196.0 699.2,196.0 H648.0 Z" fill="#d55181"><title>TinyEKF: 2.04 µs</title></path>
<text x="709.2" y="193.0" font-size="12" fill="#ffffff">2.04 µs</text>
</svg>
