<svg xmlns="http://www.w3.org/2000/svg" width="160" height="120" viewBox="0 0 160 120" role="img" aria-label="kalman-c logo: a prediction and a measurement fused into a sharper estimate">
<title>kalman-c</title>
<line x1="8" y1="108.5" x2="152" y2="108.5" stroke="#8b949e" stroke-width="2" stroke-linecap="round"/>
<path d="M6.8,107.7 L8.9,107.5 L11.1,107.3 L13.2,106.9 L15.3,106.4 L17.5,105.8 L19.6,104.9 L21.7,103.8 L23.9,102.3 L26.0,100.5 L28.1,98.3 L30.3,95.7 L32.4,92.7 L34.5,89.2 L36.7,85.3 L38.8,81.1 L40.9,76.7 L43.1,72.3 L45.2,67.9 L47.3,63.8 L49.5,60.1 L51.6,57.0 L53.7,54.7 L55.9,53.3 L58.0,52.8 L60.1,53.3 L62.3,54.7 L64.4,57.0 L66.5,60.1 L68.7,63.8 L70.8,67.9 L72.9,72.3 L75.1,76.7 L77.2,81.1 L79.3,85.3 L81.5,89.2 L83.6,92.7 L85.7,95.7 L87.9,98.3 L90.0,100.5 L92.1,102.3 L94.3,103.8 L96.4,104.9 L98.5,105.8 L100.7,106.4 L102.8,106.9 L104.9,107.3 L107.1,107.5 L109.2,107.7 L109.2,108 L6.8,108 Z" fill="#eb6834" fill-opacity="0.14"/>
<path d="M6.8,107.7 L8.9,107.5 L11.1,107.3 L13.2,106.9 L15.3,106.4 L17.5,105.8 L19.6,104.9 L21.7,103.8 L23.9,102.3 L26.0,100.5 L28.1,98.3 L30.3,95.7 L32.4,92.7 L34.5,89.2 L36.7,85.3 L38.8,81.1 L40.9,76.7 L43.1,72.3 L45.2,67.9 L47.3,63.8 L49.5,60.1 L51.6,57.0 L53.7,54.7 L55.9,53.3 L58.0,52.8 L60.1,53.3 L62.3,54.7 L64.4,57.0 L66.5,60.1 L68.7,63.8 L70.8,67.9 L72.9,72.3 L75.1,76.7 L77.2,81.1 L79.3,85.3 L81.5,89.2 L83.6,92.7 L85.7,95.7 L87.9,98.3 L90.0,100.5 L92.1,102.3 L94.3,103.8 L96.4,104.9 L98.5,105.8 L100.7,106.4 L102.8,106.9 L104.9,107.3 L107.1,107.5 L109.2,107.7" fill="none" stroke="#eb6834" stroke-width="3" stroke-linecap="round" stroke-linejoin="round"/>
<path d="M61.6,107.6 L63.2,107.3 L64.8,107.0 L66.4,106.5 L68.0,105.9 L69.6,105.0 L71.2,103.9 L72.8,102.4 L74.4,100.4 L76.0,98.0 L77.6,95.1 L79.2,91.6 L80.8,87.5 L82.4,82.9 L84.0,77.7 L85.6,72.2 L87.2,66.3 L88.8,60.4 L90.4,54.6 L92.0,49.1 L93.6,44.2 L95.2,40.1 L96.8,37.0 L98.4,35.1 L100.0,34.4 L101.6,35.1 L103.2,37.0 L104.8,40.1 L106.4,44.2 L108.0,49.1 L109.6,54.6 L111.2,60.4 L112.8,66.3 L114.4,72.2 L116.0,77.7 L117.6,82.9 L119.2,87.5 L120.8,91.6 L122.4,95.1 L124.0,98.0 L125.6,100.4 L127.2,102.4 L128.8,103.9 L130.4,105.0 L132.0,105.9 L133.6,106.5 L135.2,107.0 L136.8,107.3 L138.4,107.6 L138.4,108 L61.6,108 Z" fill="#1baf7a" fill-opacity="0.14"/>
<path d="M61.6,107.6 L63.2,107.3 L64.8,107.0 L66.4,106.5 L68.0,105.9 L69.6,105.0 L71.2,103.9 L72.8,102.4 L74.4,100.4 L76.0,98.0 L77.6,95.1 L79.2,91.6 L80.8,87.5 L82.4,82.9 L84.0,77.7 L85.6,72.2 L87.2,66.3 L88.8,60.4 L90.4,54.6 L92.0,49.1 L93.6,44.2 L95.2,40.1 L96.8,37.0 L98.4,35.1 L100.0,34.4 L101.6,35.1 L103.2,37.0 L104.8,40.1 L106.4,44.2 L108.0,49.1 L109.6,54.6 L111.2,60.4 L112.8,66.3 L114.4,72.2 L116.0,77.7 L117.6,82.9 L119.2,87.5 L120.8,91.6 L122.4,95.1 L124.0,98.0 L125.6,100.4 L127.2,102.4 L128.8,103.9 L130.4,105.0 L132.0,105.9 L133.6,106.5 L135.2,107.0 L136.8,107.3 L138.4,107.6" fill="none" stroke="#1baf7a" stroke-width="3" stroke-linecap="round" stroke-linejoin="round"/>
<path d="M54.2,107.5 L55.4,107.2 L56.7,106.8 L58.0,106.2 L59.3,105.4 L60.6,104.3 L61.8,102.8 L63.1,101.0 L64.4,98.5 L65.7,95.5 L67.0,91.9 L68.2,87.5 L69.5,82.4 L70.8,76.6 L72.1,70.2 L73.4,63.2 L74.6,55.9 L75.9,48.5 L77.2,41.2 L78.5,34.3 L79.8,28.2 L81.0,23.1 L82.3,19.2 L83.6,16.8 L84.9,16.0 L86.2,16.8 L87.4,19.2 L88.7,23.1 L90.0,28.2 L91.3,34.3 L92.6,41.2 L93.8,48.5 L95.1,55.9 L96.4,63.2 L97.7,70.2 L99.0,76.6 L100.2,82.4 L101.5,87.5 L102.8,91.9 L104.1,95.5 L105.4,98.5 L106.6,101.0 L107.9,102.8 L109.2,104.3 L110.5,105.4 L111.8,106.2 L113.0,106.8 L114.3,107.2 L115.6,107.5 L115.6,108 L54.2,108 Z" fill="#2a78d6" fill-opacity="0.14"/>
<path d="M54.2,107.5 L55.4,107.2 L56.7,106.8 L58.0,106.2 L59.3,105.4 L60.6,104.3 L61.8,102.8 L63.1,101.0 L64.4,98.5 L65.7,95.5 L67.0,91.9 L68.2,87.5 L69.5,82.4 L70.8,76.6 L72.1,70.2 L73.4,63.2 L74.6,55.9 L75.9,48.5 L77.2,41.2 L78.5,34.3 L79.8,28.2 L81.0,23.1 L82.3,19.2 L83.6,16.8 L84.9,16.0 L86.2,16.8 L87.4,19.2 L88.7,23.1 L90.0,28.2 L91.3,34.3 L92.6,41.2 L93.8,48.5 L95.1,55.9 L96.4,63.2 L97.7,70.2 L99.0,76.6 L100.2,82.4 L101.5,87.5 L102.8,91.9 L104.1,95.5 L105.4,98.5 L106.6,101.0 L107.9,102.8 L109.2,104.3 L110.5,105.4 L111.8,106.2 L113.0,106.8 L114.3,107.2 L115.6,107.5" fill="none" stroke="#2a78d6" stroke-width="4" stroke-linecap="round" stroke-linejoin="round"/>
<circle cx="84.9" cy="16.0" r="5.5" fill="#2a78d6"/>
</svg>
